<svg width="46" height="44" viewBox="0 0 46 44" fill="none" xmlns="http://www.w3.org/2000/svg">
<path d="M13 23V43L23 23H13Z" fill="#FF071A" stroke="#FF071A" stroke-linejoin="round"/>
<path d="M17 30.8184L32.6366 43.2882L23.2349 23.0001L17 30.8184Z" fill="#FF071A" stroke="#FF071A" stroke-linejoin="round"/>
<path d="M25.2266 33.2002L44.725 28.7493L23.0011 23.451L25.2266 33.2002Z" fill="#FF071A" stroke="#FF071A" stroke-linejoin="round"/>
<path d="M32.0117 27.3584L40.6885 9.3386L23.0018 23.02L32.0117 27.3584Z" fill="#FF071A" stroke="#FF071A" stroke-linejoin="round"/>
<path d="M31.6875 19.0186L23.0085 0.999815L22.6781 23.3581L31.6875 19.0186Z" fill="#FF071A" stroke="#FF071A" stroke-linejoin="round"/>
<path d="M25.7227 13.4482L6.22366 8.99974L23.4984 23.1977L25.7227 13.4482Z" fill="#FF071A" stroke="#FF071A" stroke-linejoin="round"/>
<path d="M16.6367 15L1.00163 27.4717L22.8726 22.8175L16.6367 15Z" fill="#FF071A" stroke="#FF071A" stroke-linejoin="round"/>
<rect x="17.5" y="15.5" width="11" height="15" fill="#FF071A" stroke="#FF071A" stroke-linejoin="round"/>
</svg>
